<?xml version="1.0" encoding="UTF-8"?>
<svg version="1.1" xmlns="http://www.w3.org/2000/svg" width="2100" height="2100">
<path d="M0 0 C693 0 1386 0 2100 0 C2100 693 2100 1386 2100 2100 C1407 2100 714 2100 0 2100 C0 1407 0 714 0 0 Z " fill="#FEFEFE" transform="translate(0,0)"/>
<path d="M0 0 C13.98651537 -0.09355431 27.9729502 -0.17611735 41.9597311 -0.21923256 C47.58119049 -0.23665556 53.20242186 -0.26037069 58.82376099 -0.30169678 C64.00389162 -0.33949524 69.18373235 -0.35818913 74.36399651 -0.36176109 C76.22083428 -0.36621181 78.07767182 -0.37734621 79.93441963 -0.39615822 C93.89022488 -0.53152004 106.0377749 1.19470357 118.60418701 7.80718994 C119.60288818 8.32152588 119.60288818 8.32152588 120.62176514 8.84625244 C141.3076029 19.77763054 155.70945355 37.70703619 162.72918701 59.99468994 C167.55467058 76.42576691 167.43502316 95.58353725 162.10906982 111.89483643 C158.84460148 122.08996904 156.36782925 132.40109958 154.16668701 142.86968994 C151.75985756 154.14519174 149.17610799 165.36297027 146.41668701 176.55718994 C143.75656568 187.35918945 141.25260914 198.18048469 138.91668701 209.05718994 C136.28377379 221.31068927 133.43610246 233.49866802 130.43231201 245.66656494 C128.4588102 253.67715037 126.5687508 261.70313816 124.72528076 269.74468994 C120.97004492 286.10826713 117.0433045 302.43045007 113.12414551 318.75537109 C112.13750975 322.86619834 111.15216194 326.97733429 110.16668701 331.08843994 C108.25123952 339.07831604 106.33443075 347.06786468 104.41668701 355.05718994 C103.42668701 355.05718994 102.43668701 355.05718994 101.41668701 355.05718994 C101.10666748 354.49660889 100.79664795 353.93602783 100.47723389 353.35845947 C87.67613388 330.28573446 73.83941107 308.01640569 59.22918701 286.05718994 C58.69000641 285.2452417 58.15082581 284.43329346 57.5953064 283.59674072 C47.35069465 268.19228312 36.66387679 253.12307129 25.41668701 238.43218994 C24.41786499 237.12435547 24.41786499 237.12435547 23.39886475 235.7901001 C17.67483001 228.32859469 11.79144332 221.00761483 5.80828857 213.75299072 C4.538843 212.2060488 3.28547127 210.64595194 2.03387451 209.08453369 C-2.99422347 202.82193854 -8.32653935 196.91771193 -13.80596924 191.05328369 C-15.97680462 188.72578261 -18.08035274 186.35427642 -20.14581299 183.93218994 C-26.97935825 176.04861211 -34.55535483 168.71319586 -42.58331299 162.05718994 C-43.06655029 161.64952393 -43.5497876 161.24185791 -44.04766846 160.82183838 C-60.18759662 147.25634754 -77.84305925 135.70252935 -96.58331299 126.05718994 C-97.25717041 125.70994873 -97.93102783 125.36270752 -98.62530518 125.00494385 C-139.95755894 104.01794552 -189.3762616 92.49147333 -235.58331299 101.05718994 C-236.44263428 101.2131665 -237.30195557 101.36914307 -238.18731689 101.52984619 C-252.12334106 104.13425977 -265.40210513 107.84150587 -278.58331299 113.05718994 C-279.33918701 113.35464111 -280.09506104 113.65209229 -280.87384033 113.95855713 C-297.76204223 120.7314107 -314.07572383 129.77942681 -327.58331299 142.05718994 C-328.66008262 143.01428115 -329.73690881 143.97130872 -330.81378174 144.92828369 C-341.46067517 154.48606336 -350.52283617 165.0164326 -359.24102783 176.32965088 C-360.46970957 177.91098081 -361.72261174 179.47341449 -362.97784424 181.03375244 C-412.77846878 243.63553254 -436.53455643 317.88546022 -451.58331299 395.05718994 C-451.84921324 396.41218028 -452.1151617 397.76716115 -452.38116455 399.12213135 C-459.11994058 433.65502908 -465.24138575 469.47983536 -444.36846924 500.54547119 C-443.77936768 501.37433838 -443.19026611 502.20320557 -442.58331299 503.05718994 C-442.10764893 503.73136963 -441.63198486 504.40554932 -441.14190674 505.10015869 C-415.87352374 537.0979805 -365.36185873 550.42348735 -327.05255127 555.03961182 C-302.63574161 557.68553068 -277.84067335 556.1450348 -253.89581299 550.68218994 C-253.06557617 550.4976123 -252.23533936 550.31303467 -251.37994385 550.12286377 C-244.68787792 548.46001184 -238.5014273 545.9343614 -234.58331299 540.05718994 C-234.91656336 536.85798634 -235.56617458 534.10860516 -236.58331299 531.05718994 C-238.41196239 529.93928312 -238.41196239 529.93928312 -240.58331299 529.05718994 C-241.24589111 528.70398682 -241.90846924 528.35078369 -242.59112549 527.98687744 C-249.83615163 524.37773158 -255.97282742 524.15895486 -263.76690674 526.05328369 C-287.08753874 531.38426373 -317.50720113 524.66910565 -338.27081299 513.18218994 C-345.54047945 508.36494108 -351.38902384 501.61620084 -353.58331299 493.05718994 C-355.14231925 481.73744885 -352.37580453 473.90036936 -345.93096924 464.69781494 C-296.18672563 403.30666966 -168.19445273 395.09075531 -96.25762939 384.60406494 C-89.35427088 383.57658832 -82.46694259 382.44756728 -75.58062744 381.31207275 C-55.30756037 378.00750469 -33.57995887 376.69592705 -13.58331299 382.05718994 C-12.90446045 382.223479 -12.22560791 382.38976807 -11.52618408 382.56109619 C1.38446755 385.72791512 18.64355059 390.98511843 26.16668701 402.80718994 C29.07067228 407.81310741 30.07768014 412.00468697 28.85418701 417.65484619 C26.53248344 425.02418208 22.56252788 430.38407127 17.41668701 436.05718994 C16.87141357 436.67207275 16.32614014 437.28695557 15.76434326 437.92047119 C1.6592823 452.9221864 -16.0595756 459.72015039 -35.13409424 466.04718018 C-47.43554859 470.1928909 -59.12855496 475.38166281 -70.8838501 480.88726807 C-77.57293753 483.78625577 -83.32022009 484.90121909 -90.58331299 484.05718994 C-95.54256423 481.7358383 -96.76570853 477.83565758 -98.56768799 472.95172119 C-98.90284424 471.99652588 -99.23800049 471.04133057 -99.58331299 470.05718994 C-105.11522935 454.4034701 -112.47362303 442.2499516 -123.58331299 430.05718994 C-124.2394458 429.295354 -124.89557861 428.53351807 -125.57159424 427.74859619 C-133.87350689 418.62893626 -145.5918175 412.39346291 -157.95831299 411.72125244 C-180.15492441 411.28443344 -201.76332467 418.17348322 -218.58331299 433.05718994 C-225.46423858 442.01331531 -224.54943332 455.21185982 -223.23468018 465.88824463 C-221.87416358 474.97746082 -220.18144633 483.98273554 -217.83331299 492.86968994 C-211.91350926 517.9630802 -223.36993284 542.65028977 -232.35797119 565.59796143 C-238.28247724 580.79776298 -243.29309589 596.24320438 -248.23150635 611.78692627 C-253.24827021 627.54211779 -258.23312499 642.89645638 -266.70831299 657.18218994 C-274.42473674 670.26265195 -278.67245434 684.40404901 -275.95831299 699.61968994 C-273.26359397 709.7294076 -267.04563073 717.24376741 -260.16607666 724.84283447 C-252.18385385 733.66597217 -252.18385385 733.66597217 -252.02081299 739.05718994 C-252.20401201 742.30591935 -252.58718357 743.06235071 -254.64581299 745.80718994 C-264.63629746 752.88179139 -279.7518992 753.20847457 -291.50909424 753.26031494 C-292.56145767 753.26732925 -293.61382111 753.27434357 -294.69807434 753.28157043 C-298.09736398 753.29907183 -301.49647988 753.30542708 -304.89581299 753.30718994 C-306.0509137 753.30786469 -307.2060144 753.30853943 -308.39611816 753.30923462 C-324.95577241 753.29381165 -341.25744999 753.13555815 -357.58331299 750.05718994 C-358.51079346 749.8855835 -359.43827393 749.71397705 -360.39385986 749.53717041 C-386.05112243 744.583672 -410.50572818 732.7086204 -426.59112549 711.39703369 C-435.86673611 697.44346361 -439.03216901 683.98850752 -439.02081299 667.49468994 C-439.02088348 666.76176727 -439.02095398 666.0288446 -439.02102661 665.27371216 C-438.92223684 638.46741848 -430.19989373 614.06697102 -419.84136963 589.56939697 C-415.74854014 579.81757305 -412.16217461 569.84929292 -416.02081299 559.49468994 C-421.07782192 549.56923852 -430.80661578 544.99306185 -440.31182861 540.08892822 C-448.78835316 535.66248056 -454.64341873 530.90889632 -459.58331299 522.68218994 C-460.00628662 521.98956055 -460.42926025 521.29693115 -460.86505127 520.58331299 C-474.14129352 498.29944977 -480.62890269 471.60450769 -480.78643799 445.72906494 C-480.79349762 444.95093445 -480.80055725 444.17280396 -480.80783081 443.37109375 C-481.46360643 349.46355887 -448.27044375 250.06896712 -369.58331299 144.05718994 C-369.14309814 143.54849365 -368.7028833 143.03979736 -368.24932861 142.51568604 C-354.54241852 126.73272934 -339.52210473 114.54474573 -319.18096924 108.66558838 C-309.47725369 105.76254791 -301.290206 100.57417225 -295.58331299 92.05718994 C-291.18276736 82.98181225 -288.2053968 73.27071074 -285.15362549 63.68023682 C-277.29307543 40.08454995 -259.01674949 24.93551149 -237.52862549 13.89874268 C-219.59433362 4.9589356 -202.64275148 0.53878516 -182.61451149 0.85957336 C-177.79242149 0.93500346 -172.96982643 0.95312257 -168.14727783 0.98297119 C-167.08500504 0.99102028 -166.02273226 0.99906937 -164.92826939 1.00736237 C-151.35897801 1.10100135 -137.7908815 0.97010443 -124.22211981 0.85643983 C-120.54411798 0.82609591 -116.86609938 0.79798315 -113.18807983 0.7698822 C-112.44628271 0.76420902 -111.70448558 0.75853583 -110.94020975 0.75269073 C-109.42830981 0.74113194 -107.91640983 0.7295805 -106.40450978 0.71803629 C-104.10526544 0.70040674 -101.80602288 0.6825599 -99.50678062 0.66466045 C-73.79506672 0.46505176 -48.08307373 0.30296481 -22.37108421 0.14343929 C-14.9140452 0.09715892 -7.45701432 0.05011661 0 0 Z " fill="#5BE842" transform="translate(757.5833129882813,583.9428100585938)"/>
<path d="M0 0 C1 2 1 2 0.13891602 5.02392578 C-0.31579458 6.33349188 -0.77808409 7.64044007 -1.24609375 8.9453125 C-1.75563277 10.41212144 -2.26447172 11.8791737 -2.77270508 13.34643555 C-3.04434479 14.12385101 -3.3159845 14.90126648 -3.59585571 15.70223999 C-18.26401231 57.92604375 -24.94565615 100.96937723 -30.30561829 145.21940613 C-36.90819622 199.67612877 -50.50207194 253.01144812 -89 294 C-89.56332031 294.639375 -90.12664062 295.27875 -90.70703125 295.9375 C-106.64572385 313.20741523 -130.51889701 325.87611532 -153 332 C-154.00675781 332.31453125 -155.01351562 332.6290625 -156.05078125 332.953125 C-163.92206114 335.24674298 -171.84644826 335.7779721 -180 335 C-180.99 334.34 -181.98 333.68 -183 333 C-183.65164934 329.11771621 -183.24231475 327.39234366 -181.1640625 324.02734375 C-179.90722656 322.49787109 -179.90722656 322.49787109 -178.625 320.9375 C-177.70552457 319.79443538 -176.78625979 318.65120129 -175.8671875 317.5078125 C-175.39249023 316.92805664 -174.91779297 316.34830078 -174.42871094 315.75097656 C-152.26676321 288.59009326 -146.78048611 259.49287591 -146.75 224.875 C-146.74899292 224.07964844 -146.74798584 223.28429688 -146.74694824 222.46484375 C-146.77030993 195.06845214 -151.79679661 168.92646665 -159.1875 142.625 C-159.66735193 140.89438682 -160.1468384 139.16367226 -160.62597656 137.43286133 C-162.91283052 129.2104216 -165.26824602 121.0122859 -167.75390625 112.84765625 C-167.96762375 112.14461365 -168.18134125 111.44157104 -168.40153503 110.71722412 C-169.40100393 107.43927361 -170.4143356 104.16695298 -171.44604492 100.89892578 C-171.79900635 99.76052246 -172.15196777 98.62211914 -172.515625 97.44921875 C-172.82790039 96.46268311 -173.14017578 95.47614746 -173.46191406 94.4597168 C-174 92 -174 92 -173 89 C-170.46923828 87.99194336 -170.46923828 87.99194336 -167.0703125 87.08984375 C-165.18517944 86.57284912 -165.18517944 86.57284912 -163.26196289 86.04541016 C-162.25143356 85.77558319 -162.25143356 85.77558319 -161.2204895 85.50030518 C-136.85001814 78.9549002 -113.73187526 69.93955346 -91 59 C-90.26813477 58.65259766 -89.53626953 58.30519531 -88.78222656 57.94726562 C-56.86751334 42.76737791 -26.71743992 23.14444896 0 0 Z " fill="#60EC42" transform="translate(846,999)"/>
<path d="M0 0 C15.18 0 30.36 0 46 0 C46.73004085 26.4103015 47.24074001 52.80836348 47.53222656 79.22644043 C47.58390936 83.85476002 47.63880168 88.48304169 47.69335938 93.11132812 C47.79857168 102.07418586 47.90046546 111.03707753 48 120 C48.29983795 119.28962585 48.5996759 118.57925171 48.90859985 117.84735107 C54.34958623 104.96061911 59.79111728 92.07559838 65.375 79.25 C65.91744798 78.00135867 66.4597611 76.75265874 67.00195312 75.50390625 C68.11505366 72.94053488 69.22870063 70.37740207 70.34277344 67.81445312 C72.79738713 62.16627986 75.2447024 56.51494482 77.6925354 50.86383057 C78.49488284 49.0118117 79.29755578 47.15993427 80.1003418 45.30810547 C82.64292408 39.44269138 85.18375684 33.57653357 87.71957397 27.70819092 C88.91924969 24.93216695 90.11974862 22.15649933 91.3203125 19.38085938 C91.89315337 18.05584232 92.46558949 16.73065019 93.03759766 15.40527344 C93.83003395 13.56922057 94.62396864 11.73381463 95.41796875 9.8984375 C95.86938232 8.85349121 96.3207959 7.80854492 96.78588867 6.73193359 C97.79574355 4.45960782 98.88795043 2.22409915 100 0 C115.18 0 130.36 0 146 0 C144.87476639 9.00186885 144.87476639 9.00186885 144.07958984 12.82250977 C143.90176971 13.68409195 143.72394958 14.54567413 143.54074097 15.43336487 C143.34940582 16.34351852 143.15807068 17.25367218 142.9609375 18.19140625 C142.75953156 19.16073593 142.55812561 20.13006561 142.35061646 21.12876892 C141.6956698 24.27410816 141.03561065 27.41834587 140.375 30.5625 C140.14868896 31.64499023 139.92237793 32.72748047 139.68920898 33.84277344 C136.81184713 47.60451116 133.84142735 61.33674631 130.68505859 75.03735352 C127.71467798 88.03513916 125.04556367 101.09432217 122.34927368 114.15115356 C119.48738201 128.00021419 116.51944871 141.81346298 113.34521484 155.59423828 C111.21341831 164.89627269 109.29746211 174.23129856 107.50854492 183.60522461 C107.32267822 184.56823486 107.13681152 185.53124512 106.9453125 186.5234375 C106.78562988 187.36825684 106.62594727 188.21307617 106.46142578 189.08349609 C106 191 106 191 105 192 C102.6243148 192.0883967 100.27791326 192.11530305 97.90234375 192.09765625 C96.83905602 192.09553383 96.83905602 192.09553383 95.75428772 192.09336853 C93.48198288 192.08775443 91.20977525 192.07519963 88.9375 192.0625 C87.40039204 192.05748681 85.86328255 192.05292359 84.32617188 192.04882812 C80.55074358 192.03778042 76.77538829 192.02050641 73 192 C73.65733323 184.85998504 74.94812367 177.99724838 76.4765625 170.99609375 C76.72263245 169.85198532 76.96870239 168.70787689 77.222229 167.52909851 C78.01878283 163.83094021 78.82172704 160.13420411 79.625 156.4375 C80.17627209 153.88597581 80.7272148 151.33438043 81.27783203 148.78271484 C82.61260994 142.60275387 83.95272577 136.42396706 85.29516602 130.2456665 C85.9161966 127.38590349 86.5357989 124.52583896 87.15429688 121.66552734 C90.39506723 106.67831253 93.70826344 91.71112592 97.22412109 76.78564453 C97.57531006 75.28686768 97.57531006 75.28686768 97.93359375 73.7578125 C98.14040771 72.8827002 98.34722168 72.00758789 98.56030273 71.10595703 C99.06812674 69.03226431 99.06812674 69.03226431 99 67 C89.89528013 87.26506301 80.85676705 107.5566837 71.95318604 127.91098022 C65.29319367 143.12909748 58.50668674 158.28818463 51.66040039 173.42333984 C51.29499649 174.23191437 50.92959259 175.04048889 50.55311584 175.87356567 C49.87359933 177.37669949 49.19311794 178.87939766 48.51145935 180.38156128 C46.92212342 183.89647694 45.43366123 187.41584692 44 191 C36.08 191 28.16 191 20 191 C19.34 150.74 18.68 110.48 18 69 C11.98085037 96.81112494 11.98085037 96.81112494 6.00637817 124.63171387 C5.08803457 128.92672602 4.16679879 133.22111856 3.24609375 137.515625 C1.92313224 143.68654675 0.60318695 149.85809959 -0.71334839 156.03039551 C-1.444962 159.45691724 -2.1794051 162.88282826 -2.91455078 166.30859375 C-3.25936229 167.91835804 -3.60297718 169.52837918 -3.9453125 171.13867188 C-4.41743227 173.35875891 -4.89377206 175.57790147 -5.37109375 177.796875 C-5.63849365 179.04823242 -5.90589355 180.29958984 -6.18139648 181.58886719 C-6.94556654 184.77317496 -7.96444354 187.89333062 -9 191 C-19.23 191 -29.46 191 -40 191 C-38.8749933 178.62492628 -38.8749933 178.62492628 -37.75669861 173.45265198 C-37.38072037 171.69055138 -37.38072037 171.69055138 -36.99714661 169.89285278 C-36.72343735 168.64245209 -36.44972809 167.39205139 -36.16772461 166.10375977 C-35.87458427 164.74196675 -35.58201898 163.38004984 -35.28997803 162.01802063 C-34.49996217 158.34152715 -33.70189487 154.66682465 -32.90225673 150.99241376 C-32.05656639 147.09985666 -31.21825479 143.20571039 -30.37904358 139.31175232 C-28.9634601 132.74832122 -27.54312453 126.18593404 -26.11938477 119.62426758 C-24.14064162 110.50469249 -22.1704213 101.38329283 -20.20199955 92.26148522 C-18.64551491 85.05025094 -17.08659665 77.83954238 -15.52734375 70.62890625 C-15.28512939 69.50863096 -15.28512939 69.50863096 -15.0380218 68.36572385 C-10.10615216 45.55880468 -5.07627594 22.77529821 0 0 Z " fill="#05963D" transform="translate(1844,878)"/>
<path d="M0 0 C15.18 0 30.36 0 46 0 C46.73004085 26.4103015 47.24074001 52.80836348 47.53222656 79.22644043 C47.58390936 83.85476002 47.63880168 88.48304169 47.69335938 93.11132812 C47.79857168 102.07418586 47.90046546 111.03707753 48 120 C48.29983795 119.28962585 48.5996759 118.57925171 48.90859985 117.84735107 C54.34958623 104.96061911 59.79111728 92.07559838 65.375 79.25 C65.91744798 78.00135867 66.4597611 76.75265874 67.00195312 75.50390625 C68.11505366 72.94053488 69.22870063 70.37740207 70.34277344 67.81445312 C72.79738713 62.16627986 75.2447024 56.51494482 77.6925354 50.86383057 C78.49488284 49.0118117 79.29755578 47.15993427 80.1003418 45.30810547 C82.64292408 39.44269138 85.18375684 33.57653357 87.71957397 27.70819092 C88.91924969 24.93216695 90.11974862 22.15649933 91.3203125 19.38085938 C91.89315337 18.05584232 92.46558949 16.73065019 93.03759766 15.40527344 C93.83003395 13.56922057 94.62396864 11.73381463 95.41796875 9.8984375 C95.86938232 8.85349121 96.3207959 7.80854492 96.78588867 6.73193359 C97.79574355 4.45960782 98.88795043 2.22409915 100 0 C115.18 0 130.36 0 146 0 C144.87476639 9.00186885 144.87476639 9.00186885 144.07958984 12.82250977 C143.90176971 13.68409195 143.72394958 14.54567413 143.54074097 15.43336487 C143.34940582 16.34351852 143.15807068 17.25367218 142.9609375 18.19140625 C142.75953156 19.16073593 142.55812561 20.13006561 142.35061646 21.12876892 C141.6956698 24.27410816 141.03561065 27.41834587 140.375 30.5625 C140.14868896 31.64499023 139.92237793 32.72748047 139.68920898 33.84277344 C136.81184713 47.60451116 133.84142735 61.33674631 130.68505859 75.03735352 C127.71467798 88.03513916 125.04556367 101.09432217 122.34927368 114.15115356 C119.48738201 128.00021419 116.51944871 141.81346298 113.34521484 155.59423828 C111.21341831 164.89627269 109.29746211 174.23129856 107.50854492 183.60522461 C107.32267822 184.56823486 107.13681152 185.53124512 106.9453125 186.5234375 C106.78562988 187.36825684 106.62594727 188.21307617 106.46142578 189.08349609 C106 191 106 191 105 192 C102.6243148 192.0883967 100.27791326 192.11530305 97.90234375 192.09765625 C96.83905602 192.09553383 96.83905602 192.09553383 95.75428772 192.09336853 C93.48198288 192.08775443 91.20977525 192.07519963 88.9375 192.0625 C87.40039204 192.05748681 85.86328255 192.05292359 84.32617188 192.04882812 C80.55074358 192.03778042 76.77538829 192.02050641 73 192 C73.65733323 184.85998504 74.94812367 177.99724838 76.4765625 170.99609375 C76.72263245 169.85198532 76.96870239 168.70787689 77.222229 167.52909851 C78.01878283 163.83094021 78.82172704 160.13420411 79.625 156.4375 C80.17627209 153.88597581 80.7272148 151.33438043 81.27783203 148.78271484 C82.61260994 142.60275387 83.95272577 136.42396706 85.29516602 130.2456665 C85.9161966 127.38590349 86.5357989 124.52583896 87.15429688 121.66552734 C90.39506723 106.67831253 93.70826344 91.71112592 97.22412109 76.78564453 C97.57531006 75.28686768 97.57531006 75.28686768 97.93359375 73.7578125 C98.14040771 72.8827002 98.34722168 72.00758789 98.56030273 71.10595703 C99.06812674 69.03226431 99.06812674 69.03226431 99 67 C89.89528013 87.26506301 80.85676705 107.5566837 71.95318604 127.91098022 C65.29319367 143.12909748 58.50668674 158.28818463 51.66040039 173.42333984 C51.29499649 174.23191437 50.92959259 175.04048889 50.55311584 175.87356567 C49.87359933 177.37669949 49.19311794 178.87939766 48.51145935 180.38156128 C46.92212342 183.89647694 45.43366123 187.41584692 44 191 C36.08 191 28.16 191 20 191 C19.34 150.74 18.68 110.48 18 69 C11.98085037 96.81112494 11.98085037 96.81112494 6.00637817 124.63171387 C5.08803457 128.92672602 4.16679879 133.22111856 3.24609375 137.515625 C1.92313224 143.68654675 0.60318695 149.85809959 -0.71334839 156.03039551 C-1.444962 159.45691724 -2.1794051 162.88282826 -2.91455078 166.30859375 C-3.25936229 167.91835804 -3.60297718 169.52837918 -3.9453125 171.13867188 C-4.41743227 173.35875891 -4.89377206 175.57790147 -5.37109375 177.796875 C-5.63849365 179.04823242 -5.90589355 180.29958984 -6.18139648 181.58886719 C-6.94556654 184.77317496 -7.96444354 187.89333062 -9 191 C-19.23 191 -29.46 191 -40 191 C-38.8749933 178.62492628 -38.8749933 178.62492628 -37.75669861 173.45265198 C-37.38072037 171.69055138 -37.38072037 171.69055138 -36.99714661 169.89285278 C-36.72343735 168.64245209 -36.44972809 167.39205139 -36.16772461 166.10375977 C-35.87458427 164.74196675 -35.58201898 163.38004984 -35.28997803 162.01802063 C-34.49996217 158.34152715 -33.70189487 154.66682465 -32.90225673 150.99241376 C-32.05656639 147.09985666 -31.21825479 143.20571039 -30.37904358 139.31175232 C-28.9634601 132.74832122 -27.54312453 126.18593404 -26.11938477 119.62426758 C-24.14064162 110.50469249 -22.1704213 101.38329283 -20.20199955 92.26148522 C-18.64551491 85.05025094 -17.08659665 77.83954238 -15.52734375 70.62890625 C-15.28512939 69.50863096 -15.28512939 69.50863096 -15.0380218 68.36572385 C-10.10615216 45.55880468 -5.07627594 22.77529821 0 0 Z " fill="#05963D" transform="translate(960,875)"/>
<path d="M0 0 C1.051875 0.721875 2.10375 1.44375 3.1875 2.1875 C10.51869491 9.51869491 13.61382239 17.62479669 14.23046875 27.8046875 C14.16986655 34.85546521 12.41846419 41.7022497 10.9375 48.5625 C10.61635904 50.0818907 10.29589632 51.60142489 9.97607422 53.12109375 C8.99807443 57.75045083 8.00178154 62.37573778 7 67 C6.8528656 67.67987976 6.7057312 68.35975952 6.55413818 69.0602417 C5.30483531 74.8278596 4.04693184 80.59352 2.77172852 86.35546875 C1.0433003 94.16590449 -0.6319977 101.98555778 -2.265625 109.81640625 C-2.85801954 112.63926133 -3.45105842 115.46198038 -4.04425049 118.28466797 C-4.42498377 120.10578549 -4.8026574 121.92754596 -5.17694092 123.75 C-9.91349998 146.80193305 -15.35819857 166.51825917 -36.0625 180.3125 C-51.2050437 189.0132856 -68.76511578 191.80145567 -85.97265625 188.30078125 C-96.75148884 185.3129645 -105.22998517 179.71634621 -111 170 C-113.41451684 164.38456455 -114.5252528 159.85140694 -114.44140625 153.7578125 C-114.43476456 152.98446564 -114.42812286 152.21111877 -114.42127991 151.41433716 C-114.16886333 141.99821409 -112.06542537 133.0130263 -109.9375 123.875 C-109.52102507 122.02173477 -109.10642244 120.16804789 -108.69360352 118.31396484 C-107.86498659 114.60360441 -107.02683457 110.89562578 -106.1796875 107.18945312 C-104.83359667 101.29015323 -103.54791807 95.37855836 -102.26928711 89.46435547 C-101.44034783 85.63814499 -100.59856216 81.81495633 -99.75390625 77.9921875 C-98.64518042 72.96587932 -97.55706565 67.9359229 -96.48774719 62.90109253 C-95.79379525 59.64199497 -95.09052751 56.38494224 -94.38601685 53.12811279 C-94.05157749 51.5717365 -93.72107675 50.01450736 -93.39498901 48.45635986 C-89.34462389 29.12491552 -82.83440811 13.53010863 -66 2 C-46.57488816 -9.48418643 -19.56247335 -13.48717106 0 0 Z " fill="#05963D" transform="translate(1803,882)"/>
<path d="M0 0 C1.051875 0.721875 2.10375 1.44375 3.1875 2.1875 C10.51869491 9.51869491 13.61382239 17.62479669 14.23046875 27.8046875 C14.16986655 34.85546521 12.41846419 41.7022497 10.9375 48.5625 C10.61635904 50.0818907 10.29589632 51.60142489 9.97607422 53.12109375 C8.99807443 57.75045083 8.00178154 62.37573778 7 67 C6.8528656 67.67987976 6.7057312 68.35975952 6.55413818 69.0602417 C5.30483531 74.8278596 4.04693184 80.59352 2.77172852 86.35546875 C1.0433003 94.16590449 -0.6319977 101.98555778 -2.265625 109.81640625 C-2.85801954 112.63926133 -3.45105842 115.46198038 -4.04425049 118.28466797 C-4.42498377 120.10578549 -4.8026574 121.92754596 -5.17694092 123.75 C-9.91349998 146.80193305 -15.35819857 166.51825917 -36.0625 180.3125 C-51.2050437 189.0132856 -68.76511578 191.80145567 -85.97265625 188.30078125 C-96.75148884 185.3129645 -105.22998517 179.71634621 -111 170 C-113.41451684 164.38456455 -114.5252528 159.85140694 -114.44140625 153.7578125 C-114.43476456 152.98446564 -114.42812286 152.21111877 -114.42127991 151.41433716 C-114.16886333 141.99821409 -112.06542537 133.0130263 -109.9375 123.875 C-109.52102507 122.02173477 -109.10642244 120.16804789 -108.69360352 118.31396484 C-107.86498659 114.60360441 -107.02683457 110.89562578 -106.1796875 107.18945312 C-104.83359667 101.29015323 -103.54791807 95.37855836 -102.26928711 89.46435547 C-101.44034783 85.63814499 -100.59856216 81.81495633 -99.75390625 77.9921875 C-98.64518042 72.96587932 -97.55706565 67.9359229 -96.48774719 62.90109253 C-95.79379525 59.64199497 -95.09052751 56.38494224 -94.38601685 53.12811279 C-94.05157749 51.5717365 -93.72107675 50.01450736 -93.39498901 48.45635986 C-89.34462389 29.12491552 -82.83440811 13.53010863 -66 2 C-46.57488816 -9.48418643 -19.56247335 -13.48717106 0 0 Z " fill="#05963D" transform="translate(1683,882)"/>
<path d="M0 0 C7.57435766 -0.08801707 15.14832041 -0.16440567 22.72306824 -0.20700073 C26.25194774 -0.22795974 29.78043112 -0.25587481 33.30908203 -0.30175781 C37.37536029 -0.35428938 41.44123151 -0.3730817 45.5078125 -0.390625 C46.74798126 -0.41127014 47.98815002 -0.43191528 49.26589966 -0.45318604 C62.00722818 -0.45639342 74.45963795 2.03837315 84 11 C92.38178822 21.18038027 93.13809992 31.25328086 92 44 C90.8433809 51.7782959 88.96176772 59.39188128 87 67 C86.82952148 67.69448242 86.65904297 68.38896484 86.48339844 69.10449219 C83.27438092 82.05638666 76.11930246 94.32915465 64.54890442 101.5242157 C63.20368965 102.32180046 63.20368965 102.32180046 61.83129883 103.13549805 C60.92753006 103.67281052 60.02376129 104.21012299 59.09260559 104.76371765 C58.40204575 105.17169083 57.7114859 105.579664 57 106 C57.76880759 114.06269416 58.5401028 122.12514897 59.3125 130.1875 C59.48282242 131.96666306 59.48282242 131.96666306 59.65658569 133.7817688 C61.09793898 148.82376087 62.55609595 163.86268301 64.18676758 178.88549805 C64.29657959 179.91199463 64.4063916 180.93849121 64.51953125 181.99609375 C64.61339111 182.85388428 64.70725098 183.7116748 64.80395508 184.59545898 C65.00459336 187.05633868 65 189.53095472 65 192 C53.78 192 42.56 192 31 192 C29.50260445 174.31201508 29.50260445 174.31201508 28.8671875 166.74804688 C28.43429819 161.59515258 28.00078492 156.44231632 27.56347656 151.28979492 C27.2107885 147.13382433 26.8609651 142.97762149 26.51309204 138.82124519 C26.38014853 137.23881565 26.24618851 135.65647116 26.11117554 134.07421684 C25.92165184 131.85104827 25.7358075 129.62759952 25.55078125 127.40405273 C25.44419189 126.14052475 25.33760254 124.87699677 25.2277832 123.57518005 C25.00359573 120.05643694 25 116.52587764 25 113 C19.39 113 13.78 113 8 113 C7.89945313 114.36125 7.79890625 115.7225 7.6953125 117.125 C7.01479907 123.88745398 5.43550373 130.39507724 3.875 137 C3.23971408 139.73321666 2.61082381 142.46787032 1.984375 145.203125 C1.82240631 145.90963196 1.66043762 146.61613892 1.49356079 147.34405518 C-0.76452148 157.26671143 -2.76337044 167.24436534 -4.77783203 177.21875 C-4.91972961 177.91840881 -5.0616272 178.61806763 -5.20782471 179.33892822 C-5.59212101 181.2356571 -5.97364755 183.13294656 -6.35498047 185.03027344 C-7 188 -7 188 -8 191 C-18.56 191 -29.12 191 -40 191 C-38.8749933 178.62492628 -38.8749933 178.62492628 -37.75669861 173.45265198 C-37.38072037 171.69055138 -37.38072037 171.69055138 -36.99714661 169.89285278 C-36.72343735 168.64245209 -36.44972809 167.39205139 -36.16772461 166.10375977 C-35.87458427 164.74196675 -35.58201898 163.38004984 -35.28997803 162.01802063 C-34.49996217 158.34152715 -33.70189487 154.66682465 -32.90225673 150.99241376 C-32.05656639 147.09985666 -31.21825479 143.20571039 -30.37904358 139.31175232 C-28.9634601 132.74832122 -27.54312453 126.18593404 -26.11938477 119.62426758 C-24.14064162 110.50469249 -22.1704213 101.38329283 -20.20199955 92.26148522 C-18.64551491 85.05025094 -17.08659665 77.83954238 -15.52734375 70.62890625 C-15.28512939 69.50863096 -15.28512939 69.50863096 -15.0380218 68.36572385 C-10.10619432 45.55899966 -5.08282096 22.77354747 0 0 Z " fill="#05963D" transform="translate(1484,877)"/>
<path d="M0 0 C10.89 0 21.78 0 33 0 C30.11727912 15.68200159 26.80278305 31.24548981 23.36151123 46.81155396 C20.84851753 58.19489938 18.43444732 69.59966134 16 81 C28.21 80.67 40.42 80.34 53 80 C53.680625 76.535 54.36125 73.07 55.0625 69.5 C57.76564689 55.8881496 60.73073394 42.33801042 63.72375488 28.78778076 C65.14288825 22.36167121 66.54208409 15.93129378 67.9375 9.5 C68.618125 6.365 69.29875 3.23 70 0 C80.89 0 91.78 0 103 0 C100.75452044 13.47287736 100.75452044 13.47287736 99.51953125 18.7578125 C99.24625 19.94246094 98.97296875 21.12710937 98.69140625 22.34765625 C98.25634766 24.21744141 98.25634766 24.21744141 97.8125 26.125 C95.22051178 37.38721633 92.79571707 48.67385765 90.5 60 C88.03588269 72.14592061 85.39476681 84.23577156 82.625 96.31640625 C80.45188709 105.85287944 78.44529333 115.41492026 76.5 125 C73.96843389 137.47290193 71.26388222 149.89554957 68.42944336 162.30297852 C66.17389897 172.18093043 64.05012171 182.07741092 62 192 C51.11 192 40.22 192 29 192 C32.34555118 175.08638015 35.82678352 158.20939622 39.44921875 141.35302734 C40.26561409 137.55230881 41.07825117 133.75079867 41.890625 129.94921875 C42.41123875 127.52078625 42.93206368 125.09239901 43.453125 122.6640625 C43.69476379 121.53304108 43.93640259 120.40201965 44.18536377 119.23672485 C44.4093988 118.19648163 44.63343384 117.1562384 44.86425781 116.08447266 C45.06013489 115.17170563 45.25601196 114.2589386 45.45782471 113.31851196 C46 111 46 111 47 108 C34.46 108 21.92 108 9 108 C8.67 111.3 8.34 114.6 8 118 C7.43899484 121.04585801 6.84583679 124.05288949 6.1796875 127.07421875 C6.00006973 127.90944565 5.82045197 128.74467255 5.63539124 129.60520935 C5.05410544 132.30053366 4.46478666 134.99402429 3.875 137.6875 C3.47045268 139.5538018 3.06624028 141.42017623 2.66235352 143.28662109 C-0.79301936 159.21369416 -4.37478449 175.11075755 -8 191 C-18.56 191 -29.12 191 -40 191 C-38.8749933 178.62492628 -38.8749933 178.62492628 -37.75669861 173.45265198 C-37.38072037 171.69055138 -37.38072037 171.69055138 -36.99714661 169.89285278 C-36.72343735 168.64245209 -36.44972809 167.39205139 -36.16772461 166.10375977 C-35.87458427 164.74196675 -35.58201898 163.38004984 -35.28997803 162.01802063 C-34.49996217 158.34152715 -33.70189487 154.66682465 -32.90225673 150.99241376 C-32.05656639 147.09985666 -31.21825479 143.20571039 -30.37904358 139.31175232 C-28.9634601 132.74832122 -27.54312453 126.18593404 -26.11938477 119.62426758 C-24.14064162 110.50469249 -22.1704213 101.38329283 -20.20199955 92.26148522 C-18.64551491 85.05025094 -17.08659665 77.83954238 -15.52734375 70.62890625 C-15.28512939 69.50863096 -15.28512939 69.50863096 -15.0380218 68.36572385 C-10.10615216 45.55880468 -5.07627594 22.77529821 0 0 Z " fill="#05963D" transform="translate(913,1093)"/>
<path d="M0 0 C10.89 0 21.78 0 33 0 C30.11727912 15.68200159 26.80278305 31.24548981 23.36151123 46.81155396 C20.84851753 58.19489938 18.43444732 69.59966134 16 81 C28.21 80.67 40.42 80.34 53 80 C53.680625 76.535 54.36125 73.07 55.0625 69.5 C57.76564689 55.8881496 60.73073394 42.33801042 63.72375488 28.78778076 C65.14288825 22.36167121 66.54208409 15.93129378 67.9375 9.5 C68.618125 6.365 69.29875 3.23 70 0 C80.89 0 91.78 0 103 0 C100.75452044 13.47287736 100.75452044 13.47287736 99.51953125 18.7578125 C99.24625 19.94246094 98.97296875 21.12710938 98.69140625 22.34765625 C98.25634766 24.21744141 98.25634766 24.21744141 97.8125 26.125 C95.22051178 37.38721633 92.79571707 48.67385765 90.5 60 C88.03588269 72.14592061 85.39476681 84.23577156 82.625 96.31640625 C80.45188709 105.85287944 78.44529333 115.41492026 76.5 125 C73.96843389 137.47290193 71.26388222 149.89554957 68.42944336 162.30297852 C66.17389897 172.18093043 64.05012171 182.07741092 62 192 C51.11 192 40.22 192 29 192 C32.34555118 175.08638015 35.82678352 158.20939622 39.44921875 141.35302734 C40.26561409 137.55230881 41.07825117 133.75079867 41.890625 129.94921875 C42.41123875 127.52078625 42.93206368 125.09239901 43.453125 122.6640625 C43.69476379 121.53304108 43.93640259 120.40201965 44.18536377 119.23672485 C44.4093988 118.19648163 44.63343384 117.1562384 44.86425781 116.08447266 C45.06013489 115.17170563 45.25601196 114.2589386 45.45782471 113.31851196 C46 111 46 111 47 108 C34.46 108 21.92 108 9 108 C8.67 111.3 8.34 114.6 8 118 C7.43899484 121.04585801 6.84583679 124.05288949 6.1796875 127.07421875 C6.00006973 127.90944565 5.82045197 128.74467255 5.63539124 129.60520935 C5.05410544 132.30053366 4.46478666 134.99402429 3.875 137.6875 C3.47045268 139.5538018 3.06624028 141.42017623 2.66235352 143.28662109 C-0.79301936 159.21369416 -4.37478449 175.11075755 -8 191 C-18.56 191 -29.12 191 -40 191 C-38.8749933 178.62492628 -38.8749933 178.62492628 -37.75669861 173.45265198 C-37.38072037 171.69055138 -37.38072037 171.69055138 -36.99714661 169.89285278 C-36.72343735 168.64245209 -36.44972809 167.39205139 -36.16772461 166.10375977 C-35.87458427 164.74196675 -35.58201898 163.38004984 -35.28997803 162.01802063 C-34.49996217 158.34152715 -33.70189487 154.66682465 -32.90225673 150.99241376 C-32.05656639 147.09985666 -31.21825479 143.20571039 -30.37904358 139.31175232 C-28.9634601 132.74832122 -27.54312453 126.18593404 -26.11938477 119.62426758 C-24.14064162 110.50469249 -22.1704213 101.38329283 -20.20199955 92.26148522 C-18.64551491 85.05025094 -17.08659665 77.83954238 -15.52734375 70.62890625 C-15.28512939 69.50863096 -15.28512939 69.50863096 -15.0380218 68.36572385 C-10.10615216 45.55880468 -5.07627594 22.77529821 0 0 Z " fill="#05963D" transform="translate(1359,876)"/>
<path d="M0 0 C10.89 0 21.78 0 33 0 C30.11727912 15.68200159 26.80278305 31.24548981 23.36151123 46.81155396 C20.84851753 58.19489938 18.43444732 69.59966134 16 81 C28.21 80.67 40.42 80.34 53 80 C53.680625 76.535 54.36125 73.07 55.0625 69.5 C57.76564689 55.8881496 60.73073394 42.33801042 63.72375488 28.78778076 C65.14288825 22.36167121 66.54208409 15.93129378 67.9375 9.5 C68.618125 6.365 69.29875 3.23 70 0 C80.89 0 91.78 0 103 0 C100.75452044 13.47287736 100.75452044 13.47287736 99.51953125 18.7578125 C99.24625 19.94246094 98.97296875 21.12710938 98.69140625 22.34765625 C98.25634766 24.21744141 98.25634766 24.21744141 97.8125 26.125 C95.22051178 37.38721633 92.79571707 48.67385765 90.5 60 C88.03588269 72.14592061 85.39476681 84.23577156 82.625 96.31640625 C80.45188709 105.85287944 78.44529333 115.41492026 76.5 125 C73.96843389 137.47290193 71.26388222 149.89554957 68.42944336 162.30297852 C66.17389897 172.18093043 64.05012171 182.07741092 62 192 C51.11 192 40.22 192 29 192 C32.34555118 175.08638015 35.82678352 158.20939622 39.44921875 141.35302734 C40.26561409 137.55230881 41.07825117 133.75079867 41.890625 129.94921875 C42.41123875 127.52078625 42.93206368 125.09239901 43.453125 122.6640625 C43.69476379 121.53304108 43.93640259 120.40201965 44.18536377 119.23672485 C44.4093988 118.19648163 44.63343384 117.1562384 44.86425781 116.08447266 C45.06013489 115.17170563 45.25601196 114.2589386 45.45782471 113.31851196 C46 111 46 111 47 108 C34.46 108 21.92 108 9 108 C8.67 111.3 8.34 114.6 8 118 C7.43899484 121.04585801 6.84583679 124.05288949 6.1796875 127.07421875 C6.00006973 127.90944565 5.82045197 128.74467255 5.63539124 129.60520935 C5.05410544 132.30053366 4.46478666 134.99402429 3.875 137.6875 C3.47045268 139.5538018 3.06624028 141.42017623 2.66235352 143.28662109 C-0.79301936 159.21369416 -4.37478449 175.11075755 -8 191 C-18.56 191 -29.12 191 -40 191 C-38.8749933 178.62492628 -38.8749933 178.62492628 -37.75669861 173.45265198 C-37.38072037 171.69055138 -37.38072037 171.69055138 -36.99714661 169.89285278 C-36.72343735 168.64245209 -36.44972809 167.39205139 -36.16772461 166.10375977 C-35.87458427 164.74196675 -35.58201898 163.38004984 -35.28997803 162.01802063 C-34.49996217 158.34152715 -33.70189487 154.66682465 -32.90225673 150.99241376 C-32.05656639 147.09985666 -31.21825479 143.20571039 -30.37904358 139.31175232 C-28.9634601 132.74832122 -27.54312453 126.18593404 -26.11938477 119.62426758 C-24.14064162 110.50469249 -22.1704213 101.38329283 -20.20199955 92.26148522 C-18.64551491 85.05025094 -17.08659665 77.83954238 -15.52734375 70.62890625 C-15.28512939 69.50863096 -15.28512939 69.50863096 -15.0380218 68.36572385 C-10.10615216 45.55880468 -5.07627594 22.77529821 0 0 Z " fill="#05963D" transform="translate(1112,657)"/>
<path d="M0 0 C10.56 0 21.12 0 32 0 C31.37748774 5.60261038 30.74381161 10.76642462 29.6171875 16.2265625 C29.48241501 16.88350601 29.34764252 17.54044952 29.20878601 18.21730042 C28.76869814 20.35416161 28.32215158 22.48960667 27.875 24.625 C27.55977897 26.14493079 27.24459406 27.66486908 26.92944336 29.18481445 C24.64786148 40.13645068 22.20233993 51.04536428 19.69897461 61.94848633 C17.09599862 73.37221672 14.75249513 84.84355239 12.42868042 96.32687378 C10.09356253 107.85319404 7.63789997 119.33334532 4.90209961 130.77270508 C0.73139959 145.56024664 0.73139959 145.56024664 2.25 160.3125 C4.14606244 163.22431017 4.83623647 163.81358868 8 165 C14.85778872 165.78011882 21.17502591 165.68701271 27.31640625 162.36328125 C37.78330607 153.88776376 38.57943296 135.03351592 41.11663818 122.55200195 C42.20971696 117.17688162 43.32116849 111.80554693 44.4296875 106.43359375 C44.76137436 104.82259293 44.76137436 104.82259293 45.09976196 103.17904663 C47.11584122 93.39940956 49.21046924 83.63813273 51.33657837 73.88192749 C51.81713852 71.67655959 52.29737664 69.47112204 52.77734375 67.265625 C52.94363785 66.50159866 53.10993195 65.73757233 53.28126526 64.95039368 C54.91970189 57.40401355 56.52398949 49.85044289 58.12890625 42.296875 C58.95680813 38.40719204 59.78494307 34.51755875 60.61309814 30.62792969 C61.16139508 28.0487786 61.70839848 25.46935217 62.25408936 22.88964844 C63.01892611 19.2746733 63.78830407 15.66069151 64.55859375 12.046875 C64.79050919 10.94462585 65.02242462 9.84237671 65.2613678 8.70672607 C65.47603195 7.70361389 65.69069611 6.70050171 65.91186523 5.66699219 C66.19210793 4.3454715 66.19210793 4.3454715 66.47801208 2.99725342 C67 1 67 1 68 0 C70.29151417 -0.08790975 72.58572524 -0.10694038 74.87890625 -0.09765625 C75.90889992 -0.09553383 75.90889992 -0.09553383 76.95970154 -0.09336853 C79.16067801 -0.08775479 81.36155409 -0.07520007 83.5625 -0.0625 C85.05143083 -0.05748676 86.54036324 -0.05292355 88.02929688 -0.04882812 C91.68623075 -0.03778093 95.34310558 -0.02050713 99 0 C98.49196905 8.57411719 96.91122448 16.7010915 95 25.0625 C94.52678689 27.17170271 94.05635085 29.28151333 93.58607483 31.39137268 C93.25179757 32.89075335 92.91677065 34.38996705 92.58103943 35.88902283 C90.71022902 44.2547326 88.92011304 52.63745188 87.13153076 61.02105713 C86.17705729 65.49366066 85.21921489 69.96554277 84.26171875 74.4375 C84.07244812 75.32172638 83.88317749 76.20595276 83.68817139 77.11697388 C80.9530011 89.89365751 78.21334669 102.66928834 75.42831421 115.43521118 C74.47130929 119.82359406 73.52502811 124.21411539 72.58624268 128.60643005 C71.98050056 131.42842446 71.36497809 134.24822263 70.74688721 137.0675354 C70.33064381 138.97917281 69.9255629 140.89323046 69.52099609 142.80737305 C65.58690635 160.60158244 58.36378661 175.08530705 42.875 185.1875 C36.51708403 188.980199 30.15715808 191.21826022 23 193 C22.37826904 193.1750708 21.75653809 193.3501416 21.1159668 193.53051758 C17.09295281 194.42312816 12.97941981 194.22707028 8.875 194.25 C7.52535156 194.2809375 7.52535156 194.2809375 6.1484375 194.3125 C-5.32576109 194.37844367 -15.34716925 190.80055606 -24.04296875 183.21875 C-30.98960186 175.99069679 -33.40577784 167.70604925 -33.42848301 157.81454372 C-33.14789996 146.80288165 -30.15917598 135.98579451 -27.77734375 125.28515625 C-27.2322557 122.78280027 -26.68854595 120.28014371 -26.14613342 117.77720642 C-24.86261716 111.87046196 -23.56538155 105.9668901 -22.26122814 100.06467289 C-20.66078079 92.8176518 -19.08156588 85.5660386 -17.50195312 78.31445312 C-15.06327957 67.12992447 -12.61016806 55.94864049 -10.14826012 44.76920509 C-8.64522496 37.94154912 -7.14971964 31.11232581 -5.66455078 24.28076172 C-5.41033466 23.11253262 -5.41033466 23.11253262 -5.15098286 21.92070293 C-4.40491902 18.49194176 -3.66016104 15.06291507 -2.91795349 11.63331604 C-2.67247269 10.50578415 -2.42699188 9.37825226 -2.17407227 8.21655273 C-1.96839127 7.267556 -1.76271027 6.31855927 -1.55079651 5.34080505 C-1 3 -1 3 0 0 Z " fill="#05963D" transform="translate(1128,875)"/>
<path d="M0 0 C10.89 0 21.78 0 33 0 C32.5625 11.375 32.5625 11.375 32.41430664 15.19506836 C32.18262813 21.17272436 31.95738903 27.15049288 31.74609375 33.12890625 C31.70476318 34.27117676 31.66343262 35.41344727 31.62084961 36.59033203 C31.54244881 38.76179648 31.46630372 40.93334399 31.39282227 43.10498047 C31.35600342 44.11061035 31.31918457 45.11624023 31.28125 46.15234375 C31.25095703 47.01851318 31.22066406 47.88468262 31.18945312 48.77709961 C31.02802823 51.52319494 30.79185293 54.24139079 30.52734375 56.97875977 C29.90149507 63.70603157 29.5878518 70.43924392 29.28125 77.1875 C29.21804018 78.53874757 29.15459921 79.88998435 29.09094238 81.24121094 C28.92485564 84.77812397 28.76153557 88.31515895 28.59893799 91.85223389 C28.34015133 97.4700277 28.07690054 103.08761552 27.81427002 108.70523071 C27.75080694 110.0637665 27.6874517 111.42230732 27.62420654 112.78085327 C27.12406002 123.52289644 26.58807621 134.26242019 26 145 C29.60020656 135.4533177 33.19944 125.90626885 36.7982254 116.35905075 C37.68488849 114.00692776 38.57165219 111.65484273 39.45843506 109.30276489 C45.69563711 92.75872014 51.92725924 76.21268069 58.12109375 59.65234375 C58.59816261 58.37732295 59.0752488 57.10230864 59.55235291 55.82730103 C61.7535603 49.94389421 63.95243037 44.05963323 66.1472168 38.17382812 C70.92810669 25.37614969 75.87763301 12.6652575 81 0 C91.56 0 102.12 0 113 0 C112.06447126 4.6776437 110.63051634 8.77493226 108.86181641 13.16723633 C108.53681876 13.98417906 108.21182112 14.80112179 107.87697506 15.64282036 C106.78920621 18.37418555 105.69536434 21.10307702 104.6015625 23.83203125 C103.82309779 25.78336046 103.0450257 27.73484634 102.26731873 29.68647766 C100.59759954 33.87427027 98.92523117 38.06099124 97.25076294 42.24688721 C94.61678526 48.8314209 91.9884167 55.41818364 89.36108398 62.00537109 C86.65035716 68.80084272 83.93921068 75.59614548 81.22599792 82.390625 C72.59139954 104.0137905 63.98505459 125.64814767 55.38421631 147.28475952 C52.41798441 154.74660362 49.45046455 162.20793539 46.48294067 169.66926575 C43.65512562 176.77944362 40.82758809 183.88973187 38 191 C23.48 191 8.96 191 -6 191 C-5.46144701 165.07252038 -5.46144701 165.07252038 -5.28515625 157.37109375 C-5.26449097 156.42077271 -5.24382568 155.47045166 -5.22253418 154.49133301 C-5.03052319 146.13974246 -4.66365627 137.80020216 -4.25 129.45703125 C-3.74204254 117.78393081 -3.60897484 106.09158996 -3.39257812 94.41015625 C-3.22848166 85.93963788 -3.01949813 77.48817146 -2.5 69.03125 C-1.79118462 57.48724561 -1.65296471 45.93070303 -1.44775391 34.36889648 C-1.39517684 31.47112817 -1.33830876 28.57346428 -1.28125 25.67578125 C-1.26767456 24.82534744 -1.25409912 23.97491364 -1.2401123 23.09870911 C-1.08635626 15.35732401 -0.51715542 7.75733127 0 0 Z " fill="#05953C" transform="translate(1083,1094)"/>
<path d="M0 0 C6.58356842 5.4079312 11.49782806 12.60554477 12.45532227 21.20117188 C12.55283397 23.7609165 12.54824795 26.29837385 12.5 28.859375 C12.50322266 29.71853516 12.50644531 30.57769531 12.50976562 31.46289062 C12.46650152 36.61131945 11.84792645 40.92143957 10.1875 45.796875 C-0.47216683 47.14074977 -11.08301213 48.20339532 -21.8125 48.796875 C-21.6475 47.724375 -21.4825 46.651875 -21.3125 45.546875 C-20.87048796 41.90027571 -20.65328702 38.2817101 -20.5625 34.609375 C-20.53671875 33.62582031 -20.5109375 32.64226563 -20.484375 31.62890625 C-20.86859508 28.31272101 -21.85814173 26.47821679 -23.8125 23.796875 C-28.63471092 20.81845061 -34.60156002 21.11332964 -39.99609375 22.26171875 C-44.90301401 23.829336 -48.21052978 26.27299495 -50.8125 30.796875 C-54.10897514 37.85505362 -55.2079913 45.17576488 -52.75 52.671875 C-48.41890601 62.73820762 -41.45899665 70.71598112 -34.29296875 78.83203125 C-18.04507011 97.25423401 -4.14495113 113.98895105 -5.62792969 139.6796875 C-6.00805187 144.0400309 -7.04434006 147.81138547 -8.8125 151.796875 C-9.1528125 152.61027344 -9.493125 153.42367188 -9.84375 154.26171875 C-17.10491042 170.1823036 -29.93207299 180.19313307 -45.8125 186.796875 C-58.92471039 191.48336845 -75.7701611 191.99851907 -88.9140625 187.18359375 C-98.76226811 182.47185118 -106.19699114 176.0412054 -109.94921875 165.6484375 C-111.0060241 160.93345979 -111.10538216 156.54789694 -111.0625 151.734375 C-111.07023437 150.86232422 -111.07796875 149.99027344 -111.0859375 149.09179688 C-111.07131054 144.26124325 -110.68850946 140.33056453 -108.8125 135.796875 C-98.1146685 133.87387911 -87.68934741 132.61856603 -76.8125 132.796875 C-76.9775 133.68375 -77.1425 134.570625 -77.3125 135.484375 C-78.97766569 146.3325209 -78.97766569 146.3325209 -76.0625 156.484375 C-72.98628316 159.64604231 -71.0689216 160.67773157 -66.640625 161.09765625 C-55.57068007 161.30848885 -55.57068007 161.30848885 -46.10546875 156.3203125 C-41.19060106 151.08257029 -38.7942304 145.30095724 -38.1875 138.171875 C-38.77523424 123.38809837 -51.36162258 111.6233638 -60.8671875 101.5546875 C-70.9051804 90.91084163 -80.81844959 79.78021616 -85.8125 65.796875 C-86.05484375 65.1265625 -86.2971875 64.45625 -86.546875 63.765625 C-90.83395806 49.62983763 -86.68999543 33.80180868 -79.953125 21.19140625 C-71.68683492 7.47046271 -58.72002399 -1.45716033 -43.45703125 -5.88671875 C-29.26026203 -9.24484524 -12.36371523 -8.21536341 0 0 Z " fill="#05953D" transform="translate(1319.8125,880.203125)"/>
<path d="M0 0 C30.03 0 60.06 0 91 0 C90 11 90 11 86 28 C66.53 28 47.06 28 27 28 C26.01 33.28 25.02 38.56 24 44 C23.4248441 46.71551397 22.83428106 49.42795331 22.2109375 52.1328125 C22.0621817 52.78402069 21.9134259 53.43522888 21.76016235 54.10617065 C21.30137347 56.11313405 20.8385688 58.11913586 20.375 60.125 C19.90481207 62.166682 19.4355896 64.2085725 18.96841431 66.25094604 C18.55055954 68.07680029 18.12963414 69.90195104 17.70849609 71.72705078 C17.04352979 74.79891096 16.51670748 77.89975509 16 81 C31.18 81 46.36 81 62 81 C60.70556748 90.06102766 58.79505494 99.02472532 57 108 C41.16 108 25.32 108 9 108 C8.67 111.3 8.34 114.6 8 118 C7.6960205 119.79318307 7.36042472 121.58187281 6.96850586 123.35791016 C6.76559937 124.29062744 6.56269287 125.22334473 6.3536377 126.18432617 C6.03743469 127.59742065 6.03743469 127.59742065 5.71484375 129.0390625 C5.42148132 130.38037231 5.42148132 130.38037231 5.12219238 131.7487793 C4.40015349 135.04221645 3.66827091 138.33348935 2.9375 141.625 C1.308125 149.00875 -0.32125 156.3925 -2 164 C17.14 164 36.28 164 56 164 C55 174 55 174 51 191 C20.97 191 -9.06 191 -40 191 C-38.8749933 178.62492628 -38.8749933 178.62492628 -37.75669861 173.45265198 C-37.38072037 171.69055138 -37.38072037 171.69055138 -36.99714661 169.89285278 C-36.72343735 168.64245209 -36.44972809 167.39205139 -36.16772461 166.10375977 C-35.87458427 164.74196675 -35.58201898 163.38004984 -35.28997803 162.01802063 C-34.49996217 158.34152715 -33.70189487 154.66682465 -32.90225673 150.99241376 C-32.05656639 147.09985666 -31.21825479 143.20571039 -30.37904358 139.31175232 C-28.9634601 132.74832122 -27.54312453 126.18593404 -26.11938477 119.62426758 C-24.14064162 110.50469249 -22.1704213 101.38329283 -20.20199955 92.26148522 C-18.64551491 85.05025094 -17.08659665 77.83954238 -15.52734375 70.62890625 C-15.28512939 69.50863096 -15.28512939 69.50863096 -15.0380218 68.36572385 C-14.56125727 66.16097578 -14.08424835 63.95628072 -13.60716248 61.75160217 C-13.33625007 60.49945451 -13.06533766 59.24730684 -12.78621578 57.95721531 C-8.58702138 38.6229337 -4.29220358 19.31491609 0 0 Z " fill="#05953C" transform="translate(1209,1094)"/>
<path d="M0 0 C30.03 0 60.06 0 91 0 C90 11 90 11 86 28 C66.53 28 47.06 28 27 28 C26.01 33.28 25.02 38.56 24 44 C23.4248441 46.71551397 22.83428106 49.42795331 22.2109375 52.1328125 C22.0621817 52.78402069 21.9134259 53.43522888 21.76016235 54.10617065 C21.30137347 56.11313405 20.8385688 58.11913586 20.375 60.125 C19.90481207 62.166682 19.4355896 64.2085725 18.96841431 66.25094604 C18.55055954 68.07680029 18.12963414 69.90195104 17.70849609 71.72705078 C17.04352979 74.79891096 16.51670748 77.89975509 16 81 C31.18 81 46.36 81 62 81 C60.70556748 90.06102766 58.79505494 99.02472532 57 108 C41.16 108 25.32 108 9 108 C8.67 111.3 8.34 114.6 8 118 C7.6960205 119.79318307 7.36042472 121.58187281 6.96850586 123.35791016 C6.76559937 124.29062744 6.56269287 125.22334473 6.3536377 126.18432617 C6.03743469 127.59742065 6.03743469 127.59742065 5.71484375 129.0390625 C5.42148132 130.38037231 5.42148132 130.38037231 5.12219238 131.7487793 C4.40015349 135.04221645 3.66827091 138.33348935 2.9375 141.625 C1.308125 149.00875 -0.32125 156.3925 -2 164 C17.14 164 36.28 164 56 164 C55 174 55 174 51 191 C20.97 191 -9.06 191 -40 191 C-38.8749933 178.62492628 -38.8749933 178.62492628 -37.75669861 173.45265198 C-37.38072037 171.69055138 -37.38072037 171.69055138 -36.99714661 169.89285278 C-36.72343735 168.64245209 -36.44972809 167.39205139 -36.16772461 166.10375977 C-35.87458427 164.74196675 -35.58201898 163.38004984 -35.28997803 162.01802063 C-34.49996217 158.34152715 -33.70189487 154.66682465 -32.90225673 150.99241376 C-32.05656639 147.09985666 -31.21825479 143.20571039 -30.37904358 139.31175232 C-28.9634601 132.74832122 -27.54312453 126.18593404 -26.11938477 119.62426758 C-24.14064162 110.50469249 -22.1704213 101.38329283 -20.20199955 92.26148522 C-18.64551491 85.05025094 -17.08659665 77.83954238 -15.52734375 70.62890625 C-15.28512939 69.50863096 -15.28512939 69.50863096 -15.0380218 68.36572385 C-14.56125727 66.16097578 -14.08424835 63.95628072 -13.60716248 61.75160217 C-13.33625007 60.49945451 -13.06533766 59.24730684 -12.78621578 57.95721531 C-8.58702138 38.6229337 -4.29220358 19.31491609 0 0 Z " fill="#05953C" transform="translate(1237,657)"/>
<path d="M0 0 C33.66 0 67.32 0 102 0 C100.875 10.125 100.875 10.125 100.02734375 14.03515625 C99.86741943 14.78418213 99.70749512 15.53320801 99.54272461 16.30493164 C99.24313843 17.66992798 99.24313843 17.66992798 98.9375 19.0625 C97.9784375 23.4865625 97.9784375 23.4865625 97 28 C85.12 28 73.24 28 61 28 C60.67 31.3 60.34 34.6 60 38 C59.45072594 40.97604574 58.86957794 43.9120703 58.21484375 46.86328125 C58.03836807 47.68019943 57.8618924 48.49711761 57.68006897 49.33879089 C57.10438407 51.9978472 56.5209676 54.65514166 55.9375 57.3125 C55.52876506 59.19389496 55.12057042 61.07540737 54.71289062 62.95703125 C53.88034274 66.79572288 53.04481422 70.63374559 52.20654297 74.47119141 C51.11189302 79.48335308 50.02453583 84.4970561 48.94140625 89.51171875 C48.77961884 90.2607547 48.61783142 91.00979065 48.45114136 91.78152466 C48.12820749 93.27678852 47.80530078 94.77205825 47.48242188 96.26733398 C46.99676803 98.51495768 46.51023553 100.76238948 46.0234375 103.00976562 C43.47595149 114.77332864 40.95477518 126.54244027 38.4375 138.3125 C34.67867508 155.88703916 30.85524815 173.44631695 27 191 C16.11 191 5.22 191 -6 191 C-2.47805031 172.33118057 1.33041043 153.73993908 5.3299818 135.16919327 C6.12797265 131.46171503 6.92315249 127.75363362 7.71881104 124.0456543 C9.04801124 117.85341065 10.37950944 111.66166461 11.71240234 105.47021484 C13.25239915 98.31657247 14.78833376 91.16206645 16.32227778 84.00712395 C17.80788755 77.07819081 19.2965495 70.14991674 20.78653717 63.22192383 C21.41754836 60.28757825 22.04743915 57.35299551 22.67641449 54.41821289 C23.5490627 50.34714391 24.42614629 46.27704327 25.30371094 42.20703125 C25.56343185 40.99271927 25.82315277 39.77840729 26.09074402 38.52729797 C26.32890335 37.42621201 26.56706268 36.32512604 26.81243896 35.19067383 C27.01887905 34.23075027 27.22531914 33.27082672 27.43801498 32.28181458 C28 30 28 30 29 28 C17.45 28 5.9 28 -6 28 C-5.195625 23.75125 -4.39125 19.5025 -3.5625 15.125 C-3.31056885 13.7858252 -3.0586377 12.44665039 -2.79907227 11.06689453 C-2.49827759 9.49077393 -2.49827759 9.49077393 -2.19140625 7.8828125 C-1.98717041 6.80402832 -1.78293457 5.72524414 -1.57250977 4.61376953 C-1 2 -1 2 0 0 Z " fill="#06963D" transform="translate(997,657)"/>
<path d="M0 0 C10.89 0 21.78 0 33 0 C30.55352342 13.3088326 27.83497699 26.52842961 24.91748047 39.74145508 C24.60639644 41.1505426 24.29536228 42.55964113 23.984375 43.96875 C23.82587067 44.68685349 23.66736633 45.40495697 23.50405884 46.14482117 C21.48365137 55.31712405 19.52523507 64.50272 17.5625 73.6875 C16.7932333 77.28521287 16.02368112 80.88286458 15.25390625 84.48046875 C15.06423782 85.36691574 14.8745694 86.25336273 14.67915344 87.16667175 C12.63930959 96.6942718 10.57847437 106.21730606 8.51455688 115.73971558 C6.54250782 124.83912764 4.58268062 133.94101019 2.640625 143.046875 C2.44110229 143.98152588 2.24157959 144.91617676 2.03601074 145.87915039 C1.07008728 150.4040174 0.10572551 154.92920416 -0.85546875 159.45507812 C-3.10283184 170.00467493 -5.49551223 180.50822691 -8 191 C-18.56 191 -29.12 191 -40 191 C-38.8749933 178.62492628 -38.8749933 178.62492628 -37.75669861 173.45265198 C-37.38072037 171.69055138 -37.38072037 171.69055138 -36.99714661 169.89285278 C-36.72343735 168.64245209 -36.44972809 167.39205139 -36.16772461 166.10375977 C-35.87458427 164.74196675 -35.58201898 163.38004984 -35.28997803 162.01802063 C-34.49996217 158.34152715 -33.70189487 154.66682465 -32.90225673 150.99241376 C-32.05656639 147.09985666 -31.21825479 143.20571039 -30.37904358 139.31175232 C-28.9634601 132.74832122 -27.54312453 126.18593404 -26.11938477 119.62426758 C-24.14064162 110.50469249 -22.1704213 101.38329283 -20.20199955 92.26148522 C-18.64551491 85.05025094 -17.08659665 77.83954238 -15.52734375 70.62890625 C-15.28512939 69.50863096 -15.28512939 69.50863096 -15.0380218 68.36572385 C-10.10615216 45.55880468 -5.07627594 22.77529821 0 0 Z " fill="#06963D" transform="translate(1038,1093)"/>
<path d="M0 0 C2.9375 2.1875 2.9375 2.1875 4.9375 5.1875 C6.27600328 15.70563121 3.66046154 26.04414497 1.4375 36.25 C1.07271303 37.96985381 0.7088797 39.68991013 0.34594727 41.41015625 C-0.7700032 46.6737211 -1.91333927 51.93110038 -3.0625 57.1875 C-3.32634491 58.39826202 -3.32634491 58.39826202 -3.59552002 59.63348389 C-5.5627298 68.65911001 -7.56651452 77.6759693 -9.60409546 86.68595886 C-10.59323318 91.06980463 -11.559552 95.45794015 -12.50657654 99.85107422 C-13.12259489 102.70542282 -13.74661451 105.55799292 -14.37155151 108.41040039 C-14.79789674 110.37036682 -15.21371254 112.33261454 -15.62915039 114.29492188 C-19.30445107 130.96564205 -19.30445107 130.96564205 -26.0625 135.625 C-26.7225 136.09808594 -27.3825 136.57117187 -28.0625 137.05859375 C-34.01718059 140.41973182 -41.45500162 139.74706773 -48.0625 139.1875 C-51.37028654 138.04340896 -53.31610892 136.39621402 -55.18188477 133.37475586 C-58.66908954 124.71330104 -55.23399025 114.03330673 -53.15814209 105.35543823 C-52.21753742 101.42035103 -51.32155052 97.47497052 -50.41796875 93.53125 C-50.22607971 92.69923569 -50.03419067 91.86722137 -49.83648682 91.00999451 C-47.76687746 81.99719861 -45.88434703 72.94701586 -44.01083374 63.89178467 C-43.06879076 59.34568893 -42.1155861 54.80193147 -41.1640625 50.2578125 C-40.01100643 44.7495535 -38.86658893 39.23979593 -37.7427063 33.72550964 C-37.11148072 30.64778179 -36.4605456 27.57422299 -35.8125 24.5 C-35.60286621 23.44482178 -35.39323242 22.38964355 -35.17724609 21.30249023 C-33.24800452 12.30708385 -29.77519785 5.43213454 -22.0625 0.1875 C-15.30911775 -2.59330446 -6.61981678 -3.60704004 0 0 Z " fill="#FDFEFE" transform="translate(1778.0625,903.8125)"/>
<path d="M0 0 C2.9375 2.1875 2.9375 2.1875 4.9375 5.1875 C6.27600328 15.70563121 3.66046154 26.04414497 1.4375 36.25 C1.07271303 37.96985381 0.7088797 39.68991013 0.34594727 41.41015625 C-0.7700032 46.6737211 -1.91333927 51.93110038 -3.0625 57.1875 C-3.32634491 58.39826202 -3.32634491 58.39826202 -3.59552002 59.63348389 C-5.5627298 68.65911001 -7.56651452 77.6759693 -9.60409546 86.68595886 C-10.59323318 91.06980463 -11.559552 95.45794015 -12.50657654 99.85107422 C-13.12259489 102.70542282 -13.74661451 105.55799292 -14.37155151 108.41040039 C-14.79789674 110.37036682 -15.21371254 112.33261454 -15.62915039 114.29492188 C-19.30445107 130.96564205 -19.30445107 130.96564205 -26.0625 135.625 C-26.7225 136.09808594 -27.3825 136.57117187 -28.0625 137.05859375 C-34.01718059 140.41973182 -41.45500162 139.74706773 -48.0625 139.1875 C-51.37028654 138.04340896 -53.31610892 136.39621402 -55.18188477 133.37475586 C-58.66908954 124.71330104 -55.23399025 114.03330673 -53.15814209 105.35543823 C-52.21753742 101.42035103 -51.32155052 97.47497052 -50.41796875 93.53125 C-50.22607971 92.69923569 -50.03419067 91.86722137 -49.83648682 91.00999451 C-47.76687746 81.99719861 -45.88434703 72.94701586 -44.01083374 63.89178467 C-43.06879076 59.34568893 -42.1155861 54.80193147 -41.1640625 50.2578125 C-40.01100643 44.7495535 -38.86658893 39.23979593 -37.7427063 33.72550964 C-37.11148072 30.64778179 -36.4605456 27.57422299 -35.8125 24.5 C-35.60286621 23.44482178 -35.39323242 22.38964355 -35.17724609 21.30249023 C-33.24800452 12.30708385 -29.77519785 5.43213454 -22.0625 0.1875 C-15.30911775 -2.59330446 -6.61981678 -3.60704004 0 0 Z " fill="#FDFEFE" transform="translate(1658.0625,903.8125)"/>
<path d="M0 0 C3.52067351 -0.08782542 7.04106144 -0.14066643 10.5625 -0.1875 C11.55314453 -0.21263672 12.54378906 -0.23777344 13.56445312 -0.26367188 C19.50675679 -0.32289749 23.82285928 -0.02736875 29 3 C32.75629393 6.99492 32.40180823 10.38328512 32.26220703 15.63867188 C31.82069978 21.29851534 30.71206647 26.72580303 29.4375 32.25 C29.20998047 33.36890625 28.98246094 34.4878125 28.74804688 35.640625 C27.0820104 42.97984021 24.74756164 48.0226377 19 53 C14.02242035 56.02558763 9.78612864 57.13284225 4.015625 57.09765625 C3.08105469 57.09443359 2.14648438 57.09121094 1.18359375 57.08789062 C0.21550781 57.07951172 -0.75257812 57.07113281 -1.75 57.0625 C-3.22533203 57.05573242 -3.22533203 57.05573242 -4.73046875 57.04882812 C-7.15370791 57.03706483 -9.57682273 57.02062684 -12 57 C-11.42028233 48.27788418 -9.60252578 39.9699967 -7.67138672 31.46899414 C-7.12727911 29.07253805 -6.59220852 26.67420256 -6.05859375 24.27539062 C-4.23439711 16.12598353 -2.31672849 8.02667869 0 0 Z " fill="#FDFEFD" transform="translate(1511,905)"/>
</svg>
